<?xml version="1.0" encoding="UTF-8" standalone="no"?>
<!DOCTYPE svg PUBLIC "-//W3C//DTD SVG 1.1//EN"
 "http://www.w3.org/Graphics/SVG/1.1/DTD/svg11.dtd">
<!-- Generated by graphviz version 2.38.0 (20140413.2041)
 -->
<!-- Title: ../testfiles/naka.fbx Pages: 1 -->
<svg width="1848pt" height="834pt"
 viewBox="0.00 0.00 1848.00 834.00" xmlns="http://www.w3.org/2000/svg" xmlns:xlink="http://www.w3.org/1999/xlink">
<g id="graph0" class="graph" transform="scale(1 1) rotate(0) translate(4 830)">
<title>../testfiles/naka.fbx</title>
<polygon fill="white" stroke="none" points="-4,4 -4,-830 1844,-830 1844,4 -4,4"/>
<!-- 0 -->
<g id="node1" class="node"><title>0</title>
<polygon fill="none" stroke="black" points="750,-817 696,-817 696,-781 750,-781 750,-817"/>
<text text-anchor="middle" x="723" y="-795.3" font-family="Times,serif" font-size="14.00">0</text>
</g>
<!-- 943273824768 -->
<g id="node19" class="node"><title>943273824768</title>
<polygon fill="none" stroke="black" points="772,-699 674,-699 674,-646 772,-646 772,-699"/>
<text text-anchor="middle" x="723" y="-683.8" font-family="Times,serif" font-size="14.00">Model::Naka</text>
<text text-anchor="middle" x="723" y="-668.8" font-family="Times,serif" font-size="14.00">Null</text>
<text text-anchor="middle" x="723" y="-653.8" font-family="Times,serif" font-size="14.00">943273824768</text>
</g>
<!-- 0&#45;&gt;943273824768 -->
<g id="edge1" class="edge"><title>0&#45;&gt;943273824768</title>
<path fill="none" stroke="black" d="M723,-780.95C723,-762.7 723,-733.206 723,-709.731"/>
<polygon fill="black" stroke="black" points="726.5,-709.431 723,-699.431 719.5,-709.431 726.5,-709.431"/>
</g>
<!-- 942769200256 -->
<g id="node2" class="node"><title>942769200256</title>
<polygon fill="#ffcccc" stroke="black" points="1758,-180 1660,-180 1660,-126 1758,-126 1758,-180"/>
<text text-anchor="middle" x="1709" y="-164.8" font-family="Times,serif" font-size="14.00">Texture::file1</text>
<text text-anchor="middle" x="1709" y="-133.8" font-family="Times,serif" font-size="14.00">942769200256</text>
</g>
<!-- 943431543248 -->
<g id="node31" class="node"><title>943431543248</title>
<polygon fill="none" stroke="black" points="1758,-53 1660,-53 1660,6.10623e-16 1758,6.10623e-16 1758,-53"/>
<text text-anchor="middle" x="1709" y="-37.8" font-family="Times,serif" font-size="14.00">Video::file1</text>
<text text-anchor="middle" x="1709" y="-22.8" font-family="Times,serif" font-size="14.00">Clip</text>
<text text-anchor="middle" x="1709" y="-7.8" font-family="Times,serif" font-size="14.00">943431543248</text>
</g>
<!-- 942769200256&#45;&gt;943431543248 -->
<g id="edge34" class="edge"><title>942769200256&#45;&gt;943431543248</title>
<path fill="none" stroke="black" d="M1709,-125.901C1709,-107.768 1709,-83.3739 1709,-63.4106"/>
<polygon fill="black" stroke="black" points="1712.5,-63.1384 1709,-53.1385 1705.5,-63.1385 1712.5,-63.1384"/>
</g>
<!-- 942769202656 -->
<g id="node3" class="node"><title>942769202656</title>
<polygon fill="#ffcccc" stroke="black" points="1617.5,-180 1194.5,-180 1194.5,-126 1617.5,-126 1617.5,-180"/>
<text text-anchor="middle" x="1406" y="-164.8" font-family="Times,serif" font-size="14.00">Texture::sisA_13_MODELONLY_polySurface82SG1_Flattened_Diffuse</text>
<text text-anchor="middle" x="1406" y="-133.8" font-family="Times,serif" font-size="14.00">942769202656</text>
</g>
<!-- 943431542448 -->
<g id="node30" class="node"><title>943431542448</title>
<polygon fill="none" stroke="black" points="1612,-53 1200,-53 1200,6.10623e-16 1612,6.10623e-16 1612,-53"/>
<text text-anchor="middle" x="1406" y="-37.8" font-family="Times,serif" font-size="14.00">Video::sisA_13_MODELONLY_polySurface82SG1_Flattened_Diffuse</text>
<text text-anchor="middle" x="1406" y="-22.8" font-family="Times,serif" font-size="14.00">Clip</text>
<text text-anchor="middle" x="1406" y="-7.8" font-family="Times,serif" font-size="14.00">943431542448</text>
</g>
<!-- 942769202656&#45;&gt;943431542448 -->
<g id="edge24" class="edge"><title>942769202656&#45;&gt;943431542448</title>
<path fill="none" stroke="black" d="M1406,-125.901C1406,-107.768 1406,-83.3739 1406,-63.4106"/>
<polygon fill="black" stroke="black" points="1409.5,-63.1384 1406,-53.1385 1402.5,-63.1385 1409.5,-63.1384"/>
</g>
<!-- 943168388352 -->
<g id="node4" class="node"><title>943168388352</title>
<polygon fill="#ffcccc" stroke="black" points="558,-321 406,-321 406,-267 558,-267 558,-321"/>
<text text-anchor="middle" x="482" y="-305.8" font-family="Times,serif" font-size="14.00">Material::naka_face_shd</text>
<text text-anchor="middle" x="482" y="-274.8" font-family="Times,serif" font-size="14.00">943168388352</text>
</g>
<!-- 944753240768 -->
<g id="node34" class="node"><title>944753240768</title>
<polygon fill="#ffcccc" stroke="black" points="539,-180 425,-180 425,-126 539,-126 539,-180"/>
<text text-anchor="middle" x="482" y="-164.8" font-family="Times,serif" font-size="14.00">Texture::ex1:file5</text>
<text text-anchor="middle" x="482" y="-133.8" font-family="Times,serif" font-size="14.00">944753240768</text>
</g>
<!-- 943168388352&#45;&gt;944753240768 -->
<g id="edge11" class="edge"><title>943168388352&#45;&gt;944753240768</title>
<path fill="none" stroke="#ff0000" d="M482,-266.855C482,-245.208 482,-214.217 482,-190.186"/>
<polygon fill="#ff0000" stroke="#ff0000" points="485.5,-190.028 482,-180.028 478.5,-190.028 485.5,-190.028"/>
<text text-anchor="middle" x="518.5" y="-219.8" font-family="Times,serif" font-size="14.00">DiffuseColor</text>
</g>
<!-- 943168397152 -->
<g id="node5" class="node"><title>943168397152</title>
<polygon fill="#ffcccc" stroke="black" points="966,-321 808,-321 808,-267 966,-267 966,-321"/>
<text text-anchor="middle" x="887" y="-305.8" font-family="Times,serif" font-size="14.00">Material::naka_cloth_shd</text>
<text text-anchor="middle" x="887" y="-274.8" font-family="Times,serif" font-size="14.00">943168397152</text>
</g>
<!-- 944753239328 -->
<g id="node33" class="node"><title>944753239328</title>
<polygon fill="#ffcccc" stroke="black" points="1005.5,-180 768.5,-180 768.5,-126 1005.5,-126 1005.5,-180"/>
<text text-anchor="middle" x="887" y="-164.8" font-family="Times,serif" font-size="14.00">Texture::sisA_13_MODELONLY_file3</text>
<text text-anchor="middle" x="887" y="-133.8" font-family="Times,serif" font-size="14.00">944753239328</text>
</g>
<!-- 943168397152&#45;&gt;944753239328 -->
<g id="edge17" class="edge"><title>943168397152&#45;&gt;944753239328</title>
<path fill="none" stroke="#ff0000" d="M887,-266.855C887,-245.208 887,-214.217 887,-190.186"/>
<polygon fill="#ff0000" stroke="#ff0000" points="890.5,-190.028 887,-180.028 883.5,-190.028 890.5,-190.028"/>
<text text-anchor="middle" x="923.5" y="-219.8" font-family="Times,serif" font-size="14.00">DiffuseColor</text>
</g>
<!-- 943168398352 -->
<g id="node6" class="node"><title>943168398352</title>
<polygon fill="#ffcccc" stroke="black" points="1480,-321 1332,-321 1332,-267 1480,-267 1480,-321"/>
<text text-anchor="middle" x="1406" y="-305.8" font-family="Times,serif" font-size="14.00">Material::naka_hair_sjd</text>
<text text-anchor="middle" x="1406" y="-274.8" font-family="Times,serif" font-size="14.00">943168398352</text>
</g>
<!-- 943168398352&#45;&gt;942769202656 -->
<g id="edge23" class="edge"><title>943168398352&#45;&gt;942769202656</title>
<path fill="none" stroke="#ff0000" d="M1406,-266.855C1406,-245.208 1406,-214.217 1406,-190.186"/>
<polygon fill="#ff0000" stroke="#ff0000" points="1409.5,-190.028 1406,-180.028 1402.5,-190.028 1409.5,-190.028"/>
<text text-anchor="middle" x="1442.5" y="-219.8" font-family="Times,serif" font-size="14.00">DiffuseColor</text>
</g>
<!-- 943168398752 -->
<g id="node7" class="node"><title>943168398752</title>
<polygon fill="#ffcccc" stroke="black" points="1761.5,-321 1614.5,-321 1614.5,-267 1761.5,-267 1761.5,-321"/>
<text text-anchor="middle" x="1688" y="-305.8" font-family="Times,serif" font-size="14.00">Material::naka_eye_shd</text>
<text text-anchor="middle" x="1688" y="-274.8" font-family="Times,serif" font-size="14.00">943168398752</text>
</g>
<!-- 943168398752&#45;&gt;942769200256 -->
<g id="edge32" class="edge"><title>943168398752&#45;&gt;942769200256</title>
<path fill="none" stroke="#ff0000" d="M1671.68,-266.933C1664.37,-251.996 1658.51,-232.914 1664,-216 1667.17,-206.228 1672.53,-196.708 1678.46,-188.177"/>
<polygon fill="#ff0000" stroke="#ff0000" points="1681.38,-190.12 1684.52,-180.004 1675.76,-185.949 1681.38,-190.12"/>
<text text-anchor="middle" x="1700.5" y="-219.8" font-family="Times,serif" font-size="14.00">DiffuseColor</text>
</g>
<!-- 943168398752&#45;&gt;942769200256 -->
<g id="edge33" class="edge"><title>943168398752&#45;&gt;942769200256</title>
<path fill="none" stroke="#ff0000" d="M1715.14,-266.732C1723.87,-256.501 1732.45,-244.089 1737,-231 1741.73,-217.377 1738.33,-202.466 1732.48,-189.425"/>
<polygon fill="#ff0000" stroke="#ff0000" points="1735.51,-187.655 1727.88,-180.305 1729.26,-190.809 1735.51,-187.655"/>
<text text-anchor="middle" x="1789.5" y="-219.8" font-family="Times,serif" font-size="14.00">TransparentColor</text>
</g>
<!-- 943168399152 -->
<g id="node8" class="node"><title>943168399152</title>
<polygon fill="#ffcccc" stroke="black" points="271.5,-321 116.5,-321 116.5,-267 271.5,-267 271.5,-321"/>
<text text-anchor="middle" x="194" y="-305.8" font-family="Times,serif" font-size="14.00">Material::naka_nose_shd</text>
<text text-anchor="middle" x="194" y="-274.8" font-family="Times,serif" font-size="14.00">943168399152</text>
</g>
<!-- 943168405952 -->
<g id="node9" class="node"><title>943168405952</title>
<polygon fill="#ffcccc" stroke="black" points="888,-826 768,-826 768,-772 888,-772 888,-826"/>
<text text-anchor="middle" x="828" y="-810.8" font-family="Times,serif" font-size="14.00">Material::lambert1</text>
<text text-anchor="middle" x="828" y="-779.8" font-family="Times,serif" font-size="14.00">943168405952</text>
</g>
<!-- 943272664320 -->
<g id="node10" class="node"><title>943272664320</title>
<polygon fill="#ccffcc" stroke="black" points="254,-447 134,-447 134,-394 254,-394 254,-447"/>
<text text-anchor="middle" x="194" y="-431.8" font-family="Times,serif" font-size="14.00">Model::model_line</text>
<text text-anchor="middle" x="194" y="-416.8" font-family="Times,serif" font-size="14.00">Mesh</text>
<text text-anchor="middle" x="194" y="-401.8" font-family="Times,serif" font-size="14.00">943272664320</text>
</g>
<!-- 943272664320&#45;&gt;943168399152 -->
<g id="edge16" class="edge"><title>943272664320&#45;&gt;943168399152</title>
<path fill="none" stroke="black" d="M194,-393.704C194,-375.629 194,-351.224 194,-331.204"/>
<polygon fill="black" stroke="black" points="197.5,-331.192 194,-321.192 190.5,-331.192 197.5,-331.192"/>
</g>
<!-- 943386109584 -->
<g id="node23" class="node"><title>943386109584</title>
<polygon fill="#ccccff" stroke="black" points="98,-320.5 5.44009e-15,-320.5 5.44009e-15,-267.5 98,-267.5 98,-320.5"/>
<text text-anchor="middle" x="49" y="-305.3" font-family="Times,serif" font-size="14.00">Geometry::</text>
<text text-anchor="middle" x="49" y="-290.3" font-family="Times,serif" font-size="14.00">Mesh</text>
<text text-anchor="middle" x="49" y="-275.3" font-family="Times,serif" font-size="14.00">943386109584</text>
</g>
<!-- 943272664320&#45;&gt;943386109584 -->
<g id="edge15" class="edge"><title>943272664320&#45;&gt;943386109584</title>
<path fill="none" stroke="black" d="M163.956,-393.704C141.598,-374.506 110.922,-348.168 86.8823,-327.527"/>
<polygon fill="black" stroke="black" points="88.8727,-324.622 79.0056,-320.763 84.3126,-329.933 88.8727,-324.622"/>
</g>
<!-- 943272671280 -->
<g id="node11" class="node"><title>943272671280</title>
<polygon fill="#ccffcc" stroke="black" points="525.5,-447 398.5,-447 398.5,-394 525.5,-394 525.5,-447"/>
<text text-anchor="middle" x="462" y="-431.8" font-family="Times,serif" font-size="14.00">Model::model_brow</text>
<text text-anchor="middle" x="462" y="-416.8" font-family="Times,serif" font-size="14.00">Mesh</text>
<text text-anchor="middle" x="462" y="-401.8" font-family="Times,serif" font-size="14.00">943272671280</text>
</g>
<!-- 943272671280&#45;&gt;943168388352 -->
<g id="edge14" class="edge"><title>943272671280&#45;&gt;943168388352</title>
<path fill="none" stroke="black" d="M466.144,-393.704C469.048,-375.629 472.968,-351.224 476.184,-331.204"/>
<polygon fill="black" stroke="black" points="479.662,-331.62 477.792,-321.192 472.751,-330.51 479.662,-331.62"/>
</g>
<!-- 943386116240 -->
<g id="node27" class="node"><title>943386116240</title>
<polygon fill="#ccccff" stroke="black" points="388,-320.5 290,-320.5 290,-267.5 388,-267.5 388,-320.5"/>
<text text-anchor="middle" x="339" y="-305.3" font-family="Times,serif" font-size="14.00">Geometry::</text>
<text text-anchor="middle" x="339" y="-290.3" font-family="Times,serif" font-size="14.00">Mesh</text>
<text text-anchor="middle" x="339" y="-275.3" font-family="Times,serif" font-size="14.00">943386116240</text>
</g>
<!-- 943272671280&#45;&gt;943386116240 -->
<g id="edge13" class="edge"><title>943272671280&#45;&gt;943386116240</title>
<path fill="none" stroke="black" d="M436.514,-393.704C417.713,-374.673 391.979,-348.625 371.668,-328.066"/>
<polygon fill="black" stroke="black" points="373.971,-325.417 364.453,-320.763 368.991,-330.337 373.971,-325.417"/>
</g>
<!-- 943272673600 -->
<g id="node12" class="node"><title>943272673600</title>
<polygon fill="#ccffcc" stroke="black" points="1326,-447 1204,-447 1204,-394 1326,-394 1326,-447"/>
<text text-anchor="middle" x="1265" y="-431.8" font-family="Times,serif" font-size="14.00">Model::model_hair</text>
<text text-anchor="middle" x="1265" y="-416.8" font-family="Times,serif" font-size="14.00">Mesh</text>
<text text-anchor="middle" x="1265" y="-401.8" font-family="Times,serif" font-size="14.00">943272673600</text>
</g>
<!-- 943272673600&#45;&gt;943168398352 -->
<g id="edge26" class="edge"><title>943272673600&#45;&gt;943168398352</title>
<path fill="none" stroke="black" d="M1294.22,-393.704C1315.81,-374.634 1345.39,-348.519 1368.69,-327.94"/>
<polygon fill="black" stroke="black" points="1371.16,-330.434 1376.34,-321.192 1366.52,-325.187 1371.16,-330.434"/>
</g>
<!-- 943386112144 -->
<g id="node25" class="node"><title>943386112144</title>
<polygon fill="#ccccff" stroke="black" points="1314,-320.5 1216,-320.5 1216,-267.5 1314,-267.5 1314,-320.5"/>
<text text-anchor="middle" x="1265" y="-305.3" font-family="Times,serif" font-size="14.00">Geometry::</text>
<text text-anchor="middle" x="1265" y="-290.3" font-family="Times,serif" font-size="14.00">Mesh</text>
<text text-anchor="middle" x="1265" y="-275.3" font-family="Times,serif" font-size="14.00">943386112144</text>
</g>
<!-- 943272673600&#45;&gt;943386112144 -->
<g id="edge25" class="edge"><title>943272673600&#45;&gt;943386112144</title>
<path fill="none" stroke="black" d="M1265,-393.704C1265,-375.508 1265,-350.897 1265,-330.802"/>
<polygon fill="black" stroke="black" points="1268.5,-330.763 1265,-320.763 1261.5,-330.763 1268.5,-330.763"/>
</g>
<!-- 943272675920 -->
<g id="node13" class="node"><title>943272675920</title>
<polygon fill="#ccffcc" stroke="black" points="983,-447 827,-447 827,-394 983,-394 983,-447"/>
<text text-anchor="middle" x="905" y="-431.8" font-family="Times,serif" font-size="14.00">Model::model_Headdress</text>
<text text-anchor="middle" x="905" y="-416.8" font-family="Times,serif" font-size="14.00">Mesh</text>
<text text-anchor="middle" x="905" y="-401.8" font-family="Times,serif" font-size="14.00">943272675920</text>
</g>
<!-- 943272675920&#45;&gt;943168397152 -->
<g id="edge20" class="edge"><title>943272675920&#45;&gt;943168397152</title>
<path fill="none" stroke="black" d="M901.27,-393.704C898.657,-375.629 895.129,-351.224 892.234,-331.204"/>
<polygon fill="black" stroke="black" points="895.682,-330.588 890.787,-321.192 888.754,-331.59 895.682,-330.588"/>
</g>
<!-- 943386111632 -->
<g id="node24" class="node"><title>943386111632</title>
<polygon fill="#ccccff" stroke="black" points="1082,-320.5 984,-320.5 984,-267.5 1082,-267.5 1082,-320.5"/>
<text text-anchor="middle" x="1033" y="-305.3" font-family="Times,serif" font-size="14.00">Geometry::</text>
<text text-anchor="middle" x="1033" y="-290.3" font-family="Times,serif" font-size="14.00">Mesh</text>
<text text-anchor="middle" x="1033" y="-275.3" font-family="Times,serif" font-size="14.00">943386111632</text>
</g>
<!-- 943272675920&#45;&gt;943386111632 -->
<g id="edge19" class="edge"><title>943272675920&#45;&gt;943386111632</title>
<path fill="none" stroke="black" d="M931.522,-393.704C951.173,-374.59 978.102,-348.397 999.282,-327.796"/>
<polygon fill="black" stroke="black" points="1001.78,-330.245 1006.51,-320.763 996.904,-325.227 1001.78,-330.245"/>
</g>
<!-- 943272678240 -->
<g id="node14" class="node"><title>943272678240</title>
<polygon fill="none" stroke="black" points="875,-573 777,-573 777,-520 875,-520 875,-573"/>
<text text-anchor="middle" x="826" y="-557.8" font-family="Times,serif" font-size="14.00">Model::model</text>
<text text-anchor="middle" x="826" y="-542.8" font-family="Times,serif" font-size="14.00">Null</text>
<text text-anchor="middle" x="826" y="-527.8" font-family="Times,serif" font-size="14.00">943272678240</text>
</g>
<!-- 943272678240&#45;&gt;943272664320 -->
<g id="edge4" class="edge"><title>943272678240&#45;&gt;943272664320</title>
<path fill="none" stroke="black" d="M776.934,-535.873C665.678,-514.044 393.9,-460.721 264.594,-435.351"/>
<polygon fill="black" stroke="black" points="264.895,-431.843 254.409,-433.352 263.548,-438.712 264.895,-431.843"/>
</g>
<!-- 943272678240&#45;&gt;943272671280 -->
<g id="edge3" class="edge"><title>943272678240&#45;&gt;943272671280</title>
<path fill="none" stroke="black" d="M776.841,-529.168C720.732,-510.471 625.957,-478.72 535.203,-447.401"/>
<polygon fill="black" stroke="black" points="536.18,-444.035 525.585,-444.078 533.894,-450.652 536.18,-444.035"/>
</g>
<!-- 943272678240&#45;&gt;943272673600 -->
<g id="edge7" class="edge"><title>943272678240&#45;&gt;943272673600</title>
<path fill="none" stroke="black" d="M875.081,-531.637C952.825,-509.677 1104.63,-466.797 1194.17,-441.506"/>
<polygon fill="black" stroke="black" points="1195.3,-444.825 1203.97,-438.738 1193.4,-438.088 1195.3,-444.825"/>
</g>
<!-- 943272678240&#45;&gt;943272675920 -->
<g id="edge5" class="edge"><title>943272678240&#45;&gt;943272675920</title>
<path fill="none" stroke="black" d="M842.369,-519.807C854.179,-501.269 870.25,-476.044 883.155,-455.788"/>
<polygon fill="black" stroke="black" points="886.231,-457.474 888.652,-447.16 880.327,-453.713 886.231,-457.474"/>
</g>
<!-- 943272680560 -->
<g id="node15" class="node"><title>943272680560</title>
<polygon fill="#ccffcc" stroke="black" points="1137,-447 1001,-447 1001,-394 1137,-394 1137,-447"/>
<text text-anchor="middle" x="1069" y="-431.8" font-family="Times,serif" font-size="14.00">Model::model_ribbon</text>
<text text-anchor="middle" x="1069" y="-416.8" font-family="Times,serif" font-size="14.00">Mesh</text>
<text text-anchor="middle" x="1069" y="-401.8" font-family="Times,serif" font-size="14.00">943272680560</text>
</g>
<!-- 943272678240&#45;&gt;943272680560 -->
<g id="edge6" class="edge"><title>943272678240&#45;&gt;943272680560</title>
<path fill="none" stroke="black" d="M875.175,-520.407C913.983,-500.603 968.269,-472.902 1009.52,-451.851"/>
<polygon fill="black" stroke="black" points="1011.33,-454.858 1018.65,-447.195 1008.15,-448.623 1011.33,-454.858"/>
</g>
<!-- 943272682880 -->
<g id="node16" class="node"><title>943272682880</title>
<polygon fill="#ccffcc" stroke="black" points="1615.5,-447 1478.5,-447 1478.5,-394 1615.5,-394 1615.5,-447"/>
<text text-anchor="middle" x="1547" y="-431.8" font-family="Times,serif" font-size="14.00">Model::model_eyeball</text>
<text text-anchor="middle" x="1547" y="-416.8" font-family="Times,serif" font-size="14.00">Mesh</text>
<text text-anchor="middle" x="1547" y="-401.8" font-family="Times,serif" font-size="14.00">943272682880</text>
</g>
<!-- 943272678240&#45;&gt;943272682880 -->
<g id="edge10" class="edge"><title>943272678240&#45;&gt;943272682880</title>
<path fill="none" stroke="black" d="M875.273,-537.026C998.122,-515.898 1318.82,-460.743 1468.25,-435.044"/>
<polygon fill="black" stroke="black" points="1469.01,-438.464 1478.27,-433.32 1467.83,-431.565 1469.01,-438.464"/>
</g>
<!-- 943272687520 -->
<g id="node17" class="node"><title>943272687520</title>
<polygon fill="#ccffcc" stroke="black" points="668.5,-447 543.5,-447 543.5,-394 668.5,-394 668.5,-447"/>
<text text-anchor="middle" x="606" y="-431.8" font-family="Times,serif" font-size="14.00">Model::model_body</text>
<text text-anchor="middle" x="606" y="-416.8" font-family="Times,serif" font-size="14.00">Mesh</text>
<text text-anchor="middle" x="606" y="-401.8" font-family="Times,serif" font-size="14.00">943272687520</text>
</g>
<!-- 943272678240&#45;&gt;943272687520 -->
<g id="edge8" class="edge"><title>943272678240&#45;&gt;943272687520</title>
<path fill="none" stroke="black" d="M780.683,-519.957C745.779,-500.285 697.4,-473.016 660.404,-452.164"/>
<polygon fill="black" stroke="black" points="661.689,-448.871 651.259,-447.009 658.252,-454.969 661.689,-448.871"/>
</g>
<!-- 943272689840 -->
<g id="node18" class="node"><title>943272689840</title>
<polygon fill="#ccffcc" stroke="black" points="809,-447 687,-447 687,-394 809,-394 809,-447"/>
<text text-anchor="middle" x="748" y="-431.8" font-family="Times,serif" font-size="14.00">Model::model_face</text>
<text text-anchor="middle" x="748" y="-416.8" font-family="Times,serif" font-size="14.00">Mesh</text>
<text text-anchor="middle" x="748" y="-401.8" font-family="Times,serif" font-size="14.00">943272689840</text>
</g>
<!-- 943272678240&#45;&gt;943272689840 -->
<g id="edge9" class="edge"><title>943272678240&#45;&gt;943272689840</title>
<path fill="none" stroke="black" d="M809.838,-519.807C798.177,-501.269 782.31,-476.044 769.568,-455.788"/>
<polygon fill="black" stroke="black" points="772.428,-453.761 764.141,-447.16 766.503,-457.488 772.428,-453.761"/>
</g>
<!-- 943272680560&#45;&gt;943168397152 -->
<g id="edge22" class="edge"><title>943272680560&#45;&gt;943168397152</title>
<path fill="none" stroke="black" d="M1031.29,-393.704C1002.93,-374.303 963.905,-347.608 933.591,-326.872"/>
<polygon fill="black" stroke="black" points="935.518,-323.949 925.288,-321.192 931.566,-329.727 935.518,-323.949"/>
</g>
<!-- 943386105488 -->
<g id="node22" class="node"><title>943386105488</title>
<polygon fill="#ccccff" stroke="black" points="1198,-320.5 1100,-320.5 1100,-267.5 1198,-267.5 1198,-320.5"/>
<text text-anchor="middle" x="1149" y="-305.3" font-family="Times,serif" font-size="14.00">Geometry::</text>
<text text-anchor="middle" x="1149" y="-290.3" font-family="Times,serif" font-size="14.00">Mesh</text>
<text text-anchor="middle" x="1149" y="-275.3" font-family="Times,serif" font-size="14.00">943386105488</text>
</g>
<!-- 943272680560&#45;&gt;943386105488 -->
<g id="edge21" class="edge"><title>943272680560&#45;&gt;943386105488</title>
<path fill="none" stroke="black" d="M1085.58,-393.704C1097.54,-375.091 1113.81,-349.764 1126.88,-329.427"/>
<polygon fill="black" stroke="black" points="1129.98,-331.068 1132.45,-320.763 1124.09,-327.284 1129.98,-331.068"/>
</g>
<!-- 943272682880&#45;&gt;943168398752 -->
<g id="edge36" class="edge"><title>943272682880&#45;&gt;943168398752</title>
<path fill="none" stroke="black" d="M1576.22,-393.704C1597.81,-374.634 1627.39,-348.519 1650.69,-327.94"/>
<polygon fill="black" stroke="black" points="1653.16,-330.434 1658.34,-321.192 1648.52,-325.187 1653.16,-330.434"/>
</g>
<!-- 943386113168 -->
<g id="node26" class="node"><title>943386113168</title>
<polygon fill="#ccccff" stroke="black" points="1596,-320.5 1498,-320.5 1498,-267.5 1596,-267.5 1596,-320.5"/>
<text text-anchor="middle" x="1547" y="-305.3" font-family="Times,serif" font-size="14.00">Geometry::</text>
<text text-anchor="middle" x="1547" y="-290.3" font-family="Times,serif" font-size="14.00">Mesh</text>
<text text-anchor="middle" x="1547" y="-275.3" font-family="Times,serif" font-size="14.00">943386113168</text>
</g>
<!-- 943272682880&#45;&gt;943386113168 -->
<g id="edge35" class="edge"><title>943272682880&#45;&gt;943386113168</title>
<path fill="none" stroke="black" d="M1547,-393.704C1547,-375.508 1547,-350.897 1547,-330.802"/>
<polygon fill="black" stroke="black" points="1550.5,-330.763 1547,-320.763 1543.5,-330.763 1550.5,-330.763"/>
</g>
<!-- 943272687520&#45;&gt;943168388352 -->
<g id="edge28" class="edge"><title>943272687520&#45;&gt;943168388352</title>
<path fill="none" stroke="black" d="M580.307,-393.704C561.48,-374.8 535.755,-348.972 515.344,-328.478"/>
<polygon fill="black" stroke="black" points="517.623,-325.807 508.087,-321.192 512.664,-330.747 517.623,-325.807"/>
</g>
<!-- 943272687520&#45;&gt;943168397152 -->
<g id="edge29" class="edge"><title>943272687520&#45;&gt;943168397152</title>
<path fill="none" stroke="black" d="M663.883,-393.854C708.918,-373.901 771.518,-346.165 818.952,-325.15"/>
<polygon fill="black" stroke="black" points="820.501,-328.291 828.226,-321.04 817.666,-321.891 820.501,-328.291"/>
</g>
<!-- 943386103440 -->
<g id="node21" class="node"><title>943386103440</title>
<polygon fill="#ccccff" stroke="black" points="674,-320.5 576,-320.5 576,-267.5 674,-267.5 674,-320.5"/>
<text text-anchor="middle" x="625" y="-305.3" font-family="Times,serif" font-size="14.00">Geometry::</text>
<text text-anchor="middle" x="625" y="-290.3" font-family="Times,serif" font-size="14.00">Mesh</text>
<text text-anchor="middle" x="625" y="-275.3" font-family="Times,serif" font-size="14.00">943386103440</text>
</g>
<!-- 943272687520&#45;&gt;943386103440 -->
<g id="edge27" class="edge"><title>943272687520&#45;&gt;943386103440</title>
<path fill="none" stroke="black" d="M609.937,-393.704C612.714,-375.508 616.47,-350.897 619.536,-330.802"/>
<polygon fill="black" stroke="black" points="623.019,-331.177 621.068,-320.763 616.1,-330.121 623.019,-331.177"/>
</g>
<!-- 943272689840&#45;&gt;943168388352 -->
<g id="edge31" class="edge"><title>943272689840&#45;&gt;943168388352</title>
<path fill="none" stroke="black" d="M693.207,-393.854C650.664,-373.943 591.564,-346.281 546.697,-325.281"/>
<polygon fill="black" stroke="black" points="548.177,-322.11 537.636,-321.04 545.21,-328.449 548.177,-322.11"/>
</g>
<!-- 943386100880 -->
<g id="node20" class="node"><title>943386100880</title>
<polygon fill="#ccccff" stroke="black" points="790,-320.5 692,-320.5 692,-267.5 790,-267.5 790,-320.5"/>
<text text-anchor="middle" x="741" y="-305.3" font-family="Times,serif" font-size="14.00">Geometry::</text>
<text text-anchor="middle" x="741" y="-290.3" font-family="Times,serif" font-size="14.00">Mesh</text>
<text text-anchor="middle" x="741" y="-275.3" font-family="Times,serif" font-size="14.00">943386100880</text>
</g>
<!-- 943272689840&#45;&gt;943386100880 -->
<g id="edge30" class="edge"><title>943272689840&#45;&gt;943386100880</title>
<path fill="none" stroke="black" d="M746.55,-393.704C745.527,-375.508 744.143,-350.897 743.013,-330.802"/>
<polygon fill="black" stroke="black" points="746.504,-330.551 742.449,-320.763 739.516,-330.944 746.504,-330.551"/>
</g>
<!-- 943273824768&#45;&gt;943272678240 -->
<g id="edge2" class="edge"><title>943273824768&#45;&gt;943272678240</title>
<path fill="none" stroke="black" d="M744.342,-645.807C759.947,-627.02 781.258,-601.364 798.195,-580.974"/>
<polygon fill="black" stroke="black" points="800.988,-583.089 804.686,-573.16 795.604,-578.616 800.988,-583.089"/>
</g>
<!-- 943410809552 -->
<g id="node28" class="node"><title>943410809552</title>
<polygon fill="none" stroke="black" points="947.5,-699 790.5,-699 790.5,-646 947.5,-646 947.5,-699"/>
<text text-anchor="middle" x="869" y="-683.8" font-family="Times,serif" font-size="14.00">DisplayLayer::meshLayer</text>
<text text-anchor="middle" x="869" y="-668.8" font-family="Times,serif" font-size="14.00">DisplayLayer</text>
<text text-anchor="middle" x="869" y="-653.8" font-family="Times,serif" font-size="14.00">943410809552</text>
</g>
<!-- 943410809552&#45;&gt;943272678240 -->
<g id="edge37" class="edge"><title>943410809552&#45;&gt;943272678240</title>
<path fill="none" stroke="black" d="M860.09,-645.807C853.748,-627.518 845.15,-602.722 838.175,-582.609"/>
<polygon fill="black" stroke="black" points="841.481,-581.461 834.898,-573.16 834.868,-583.755 841.481,-581.461"/>
</g>
<!-- 943431541648 -->
<g id="node29" class="node"><title>943431541648</title>
<polygon fill="none" stroke="black" points="1000,-53 774,-53 774,6.10623e-16 1000,6.10623e-16 1000,-53"/>
<text text-anchor="middle" x="887" y="-37.8" font-family="Times,serif" font-size="14.00">Video::sisA_13_MODELONLY_file3</text>
<text text-anchor="middle" x="887" y="-22.8" font-family="Times,serif" font-size="14.00">Clip</text>
<text text-anchor="middle" x="887" y="-7.8" font-family="Times,serif" font-size="14.00">943431541648</text>
</g>
<!-- 943431546448 -->
<g id="node32" class="node"><title>943431546448</title>
<polygon fill="none" stroke="black" points="533.5,-53 430.5,-53 430.5,6.10623e-16 533.5,6.10623e-16 533.5,-53"/>
<text text-anchor="middle" x="482" y="-37.8" font-family="Times,serif" font-size="14.00">Video::ex1:file5</text>
<text text-anchor="middle" x="482" y="-22.8" font-family="Times,serif" font-size="14.00">Clip</text>
<text text-anchor="middle" x="482" y="-7.8" font-family="Times,serif" font-size="14.00">943431546448</text>
</g>
<!-- 944753239328&#45;&gt;943431541648 -->
<g id="edge18" class="edge"><title>944753239328&#45;&gt;943431541648</title>
<path fill="none" stroke="black" d="M887,-125.901C887,-107.768 887,-83.3739 887,-63.4106"/>
<polygon fill="black" stroke="black" points="890.5,-63.1384 887,-53.1385 883.5,-63.1385 890.5,-63.1384"/>
</g>
<!-- 944753240768&#45;&gt;943431546448 -->
<g id="edge12" class="edge"><title>944753240768&#45;&gt;943431546448</title>
<path fill="none" stroke="black" d="M482,-125.901C482,-107.768 482,-83.3739 482,-63.4106"/>
<polygon fill="black" stroke="black" points="485.5,-63.1384 482,-53.1385 478.5,-63.1385 485.5,-63.1384"/>
</g>
</g>
</svg>
